<svg width="157" height="48" viewBox="0 0 157 48" fill="none" xmlns="http://www.w3.org/2000/svg">
<path d="M41.7646 0H13.8902L0 24.0468L13.3271 47.0643L13.8902 48H41.7646L55.6549 23.9532L41.7646 0ZM43.3601 41.4503H18.8645L20.46 38.7368H44.9556L43.3601 41.4503ZM21.4923 36.8655L23.0879 34.152H47.5835L45.988 36.8655H21.4923ZM24.2141 32.2807L25.8096 29.5673H50.3052L48.7097 32.2807H24.2141ZM26.842 27.6023L28.3436 24.9825H52.8393L51.3376 27.6023H26.842ZM18.6768 10.1053L6.47586 31.2515L4.88036 28.538L17.0813 7.39181L18.6768 10.1053ZM19.803 12.0702L21.3985 14.7836L9.1976 35.9298L7.6021 33.2164L19.803 12.0702ZM22.4309 16.655L24.0264 19.3684L11.8255 40.5146L10.23 37.8012L22.4309 16.655ZM16.1427 1.96491H19.146L31.3469 23.1111H28.3436L16.1427 1.96491ZM44.4863 23.1111L32.2854 1.96491H35.4764L47.6773 23.1111H44.4863ZM42.2339 23.1111H39.0429L26.842 1.96491H30.033L42.2339 23.1111ZM36.8842 23.1111H33.6932L21.4923 1.96491H24.5895L36.8842 23.1111ZM52.8393 23.1111H49.836L37.6351 1.96491H40.6384L52.8393 23.1111ZM14.5472 2.90058L16.0489 5.4269L3.84798 26.5731L2.34633 24.0468L14.5472 2.90058ZM12.9517 42.386L25.1526 21.2398L26.7481 23.9532L14.5472 45.0994L12.9517 42.386ZM40.6384 46.1287H16.1427L17.7382 43.4152H42.2339L40.6384 46.1287Z" fill="#7E6459"/>
<path d="M68.1044 27.7656H69.6907C70.008 27.7656 70.3252 27.8447 70.5632 27.8447C70.8011 27.9238 71.039 28.0028 71.1977 28.161C71.3563 28.3191 71.5149 28.3982 71.6735 28.5563C71.7529 28.7145 71.9115 28.8726 71.9908 29.0308C72.0701 29.1889 72.0701 29.3471 72.1494 29.5052C72.1494 29.6634 72.2287 29.8215 72.2287 29.9796C72.2287 30.2959 72.1494 30.5331 72.0701 30.8494C71.9908 31.0867 71.8322 31.4029 71.5942 31.5611C71.3563 31.7983 71.1184 31.9564 70.8011 32.1146C70.4838 32.2727 70.0873 32.2727 69.6907 32.2727H68.1044V27.7656ZM68.7389 31.7983H69.5321C69.77 31.7983 70.008 31.7983 70.2459 31.7192C70.4838 31.6402 70.7218 31.5611 70.8804 31.4029C71.039 31.2448 71.1977 31.0867 71.277 30.8494C71.3563 30.6122 71.4356 30.375 71.4356 30.0587C71.4356 29.9006 71.4356 29.7424 71.3563 29.5052C71.277 29.268 71.1977 29.1099 71.1184 28.9517C70.9597 28.7936 70.8011 28.6354 70.5632 28.4773C70.3252 28.3191 70.008 28.3191 69.6114 28.3191H68.7389V31.7983Z" fill="#7E6459"/>
<path d="M75.7978 27.7656H76.3529L78.3358 32.3518H77.622L77.1461 31.2448H74.9253L74.4494 32.3518H73.7356L75.7978 27.7656ZM76.9081 30.6913L76.0357 28.5563L75.1632 30.6913H76.9081Z" fill="#7E6459"/>
<path d="M80.5567 28.3191H79.0497V27.7656H82.6189V28.3191H81.1912V32.3518H80.5567V28.3191Z" fill="#7E6459"/>
<path d="M85.7913 33.4588C85.9499 33.5379 86.1085 33.5379 86.2671 33.5379C86.2671 33.5379 86.3465 33.5379 86.4258 33.5379C86.5051 33.5379 86.5051 33.5379 86.5844 33.4588L86.6637 33.3797C86.6637 33.3797 86.743 33.3007 86.743 33.2216C86.743 33.1425 86.743 33.0634 86.6637 33.0634C86.5844 33.0634 86.5844 32.9844 86.5051 32.9844C86.4258 32.9844 86.3465 32.9844 86.2671 32.9844C86.1878 32.9844 86.1085 32.9844 86.1085 32.9844L85.9499 32.9053L86.2671 32.4309C86.0292 32.4309 85.8706 32.3518 85.6326 32.2727C85.3154 32.1146 85.0774 31.9564 84.9188 31.7192C84.6809 31.482 84.5222 31.2448 84.4429 30.9285C84.3636 30.6122 84.2843 30.375 84.2843 30.0587C84.2843 29.7424 84.3636 29.347 84.4429 29.1098C84.6016 28.7935 84.7602 28.5563 84.9188 28.3191C85.1568 28.0819 85.3947 27.9237 85.7119 27.8447C86.0292 27.6865 86.3465 27.6865 86.6637 27.6865C86.981 27.6865 87.2982 27.7656 87.5362 27.8447C87.8534 27.9237 88.0914 28.161 88.25 28.3982L87.6948 28.7935C87.5362 28.6354 87.3775 28.4772 87.2189 28.3982C87.0603 28.3191 86.8223 28.24 86.5844 28.24C86.3465 28.24 86.1085 28.3191 85.8706 28.3982C85.6326 28.4772 85.474 28.6354 85.3154 28.7935C85.1568 28.9517 85.0774 29.1889 84.9981 29.4261C84.9188 29.6633 84.8395 29.9005 84.8395 30.1378C84.8395 30.375 84.9188 30.6122 84.9188 30.8494C84.9981 31.0866 85.0774 31.2448 85.2361 31.4029C85.3947 31.5611 85.5533 31.7192 85.7913 31.7983C86.0292 31.8774 86.2671 31.9564 86.5051 31.9564C86.743 31.9564 86.981 31.8774 87.2189 31.7983C87.3775 31.7192 87.6155 31.5611 87.6948 31.3239L88.25 31.7192C88.25 31.7983 88.1707 31.7983 88.0914 31.9564C88.012 32.0355 87.8534 32.1146 87.7741 32.1936C87.6155 32.2727 87.4568 32.3518 87.2189 32.4309C86.981 32.5099 86.743 32.5099 86.5051 32.5099H86.4258L86.1878 32.8262H86.3465C86.4258 32.8262 86.5051 32.8262 86.5844 32.8262C86.6637 32.8262 86.743 32.9053 86.743 32.9053C86.8223 32.9053 86.8223 32.9844 86.9017 33.0634C86.9017 33.1425 86.981 33.2216 86.981 33.3007C86.981 33.4588 86.981 33.5379 86.9017 33.617C86.8223 33.696 86.8223 33.7751 86.743 33.7751C86.6637 33.8542 86.5844 33.8542 86.5051 33.8542C86.4258 33.8542 86.3465 33.8542 86.1878 33.8542C86.0292 33.8542 85.9499 33.8542 85.8706 33.8542C85.7913 33.8542 85.6326 33.7751 85.5533 33.7751L85.7913 33.4588Z" fill="#7E6459"/>
<path d="M91.8984 27.7656H92.4536L94.4364 32.3518H93.7226L93.2467 31.2448H91.0259L90.5501 32.3518H89.8362L91.8984 27.7656ZM93.0088 30.6913L92.1363 28.5563L91.2639 30.6913H93.0088Z" fill="#7E6459"/>
<path d="M99.3539 27.7656H101.019C101.337 27.7656 101.575 27.8447 101.733 27.9238C101.892 28.0028 102.051 28.0819 102.209 28.2401C102.288 28.3982 102.368 28.4773 102.447 28.6354C102.526 28.7936 102.526 28.9517 102.526 29.1098C102.526 29.268 102.526 29.4261 102.447 29.5843C102.368 29.7424 102.368 29.9006 102.209 29.9796C102.13 30.1378 101.971 30.2169 101.733 30.2959C101.575 30.375 101.337 30.4541 101.019 30.4541H99.9884V32.5099H99.3539V27.7656ZM99.9091 29.8215H100.702C100.861 29.8215 100.94 29.8215 101.099 29.8215C101.178 29.8215 101.337 29.7424 101.416 29.7424C101.495 29.6634 101.575 29.5843 101.654 29.5052C101.733 29.4261 101.733 29.268 101.733 29.1098C101.733 28.9517 101.733 28.7936 101.654 28.7145C101.575 28.6354 101.495 28.5563 101.416 28.4773C101.337 28.3982 101.178 28.3982 101.099 28.3982C100.94 28.3982 100.861 28.3982 100.702 28.3982H99.9091V29.8215Z" fill="#7E6459"/>
<path d="M104.43 27.7656H107.444V28.3191H105.065V29.7424H107.285V30.2959H105.065V31.7983H107.523V32.3518H104.43V27.7656Z" fill="#7E6459"/>
<path d="M109.665 27.7656H110.537L113.075 31.5611V27.7656H113.71V32.3518H112.917L110.299 28.5563V32.3518H109.665V27.7656Z" fill="#7E6459"/>
<path d="M116.803 27.7656H116.168V32.3518H116.803V27.7656Z" fill="#7E6459"/>
<path d="M119.182 27.7656H120.055L122.593 31.5611V27.7656H123.227V32.3518H122.434L119.817 28.5563V32.3518H119.182V27.7656Z" fill="#7E6459"/>
<path d="M125.765 31.4029C125.845 31.5611 126.003 31.7192 126.241 31.7983C126.4 31.8774 126.638 31.9564 126.797 31.9564C126.876 31.9564 127.034 31.9564 127.114 31.8774C127.193 31.8774 127.352 31.7983 127.431 31.7192C127.51 31.6401 127.59 31.5611 127.669 31.482C127.748 31.4029 127.748 31.2448 127.748 31.1657C127.748 31.0076 127.669 30.8494 127.59 30.7703C127.51 30.6913 127.352 30.6122 127.193 30.5331C127.034 30.4541 126.876 30.375 126.638 30.375C126.479 30.2959 126.241 30.2168 126.083 30.1378C125.924 30.0587 125.765 29.9005 125.686 29.7424C125.607 29.5843 125.527 29.347 125.527 29.0308C125.527 28.8726 125.527 28.7145 125.607 28.5563C125.686 28.3982 125.765 28.24 125.924 28.161C126.083 28.0028 126.241 27.9237 126.4 27.8447C126.559 27.7656 126.876 27.6865 127.114 27.6865C127.352 27.6865 127.59 27.6865 127.828 27.7656C128.066 27.8447 128.224 28.0028 128.462 28.161L127.986 28.6354C127.907 28.4772 127.828 28.3982 127.669 28.3191C127.51 28.24 127.352 28.24 127.193 28.24C127.034 28.24 126.876 28.24 126.797 28.3191C126.717 28.3982 126.559 28.3982 126.559 28.4772C126.479 28.5563 126.479 28.6354 126.4 28.7145C126.4 28.7935 126.321 28.8726 126.321 28.9517C126.321 29.1098 126.4 29.268 126.479 29.4261C126.559 29.5052 126.717 29.5843 126.876 29.6633C127.034 29.7424 127.193 29.8215 127.431 29.8215C127.59 29.9005 127.828 29.9796 127.986 30.0587C128.145 30.1378 128.303 30.2959 128.383 30.4541C128.462 30.6122 128.541 30.8494 128.541 31.0866C128.541 31.3238 128.462 31.482 128.383 31.7192C128.303 31.8774 128.224 32.0355 128.066 32.1936C127.907 32.3518 127.748 32.4309 127.59 32.5099C127.431 32.589 127.193 32.589 126.955 32.589C126.638 32.589 126.4 32.5099 126.083 32.4309C125.765 32.3518 125.607 32.1936 125.448 31.9564L125.765 31.4029Z" fill="#7E6459"/>
<path d="M131.079 27.7656V30.6122C131.079 30.7704 131.079 30.9285 131.159 31.0867C131.238 31.2448 131.238 31.4029 131.397 31.482C131.476 31.6402 131.635 31.7192 131.793 31.7983C131.952 31.8774 132.111 31.9564 132.349 31.9564C132.586 31.9564 132.745 31.8774 132.904 31.7983C133.062 31.7192 133.142 31.6402 133.3 31.482C133.38 31.3239 133.459 31.2448 133.459 31.0867C133.459 30.9285 133.538 30.7704 133.538 30.6122V27.7656H134.173V30.6913C134.173 30.9285 134.093 31.2448 134.014 31.4029C133.935 31.6402 133.776 31.7983 133.618 31.9564C133.459 32.1146 133.3 32.2727 133.062 32.3518C132.824 32.4309 132.586 32.51 132.349 32.51C132.111 32.51 131.873 32.4309 131.635 32.3518C131.397 32.2727 131.238 32.1146 131.079 31.9564C130.921 31.7983 130.762 31.6402 130.683 31.4029C130.604 31.1657 130.524 30.9285 130.524 30.6913V27.7656H131.079Z" fill="#7E6459"/>
<path d="M136.394 27.7656H137.028V31.7983H139.09V32.3518H136.394V27.7656Z" fill="#7E6459"/>
<path d="M142.501 27.7656H143.056L145.039 32.3518H144.325L143.849 31.2448H141.628L141.152 32.3518H140.438L142.501 27.7656ZM143.611 30.6913L142.739 28.5563L141.866 30.6913H143.611Z" fill="#7E6459"/>
<path d="M76.5117 16.3792C76.5117 18.9095 74.8461 20.7282 71.8322 20.7282H68.1044V11.9512H71.9115C74.7668 11.9512 76.5117 13.8489 76.5117 16.3792ZM69.2148 12.9791V19.7793H71.9115C74.2116 19.7793 75.4013 18.356 75.4013 16.3792C75.4013 14.4024 74.053 12.9791 71.9115 12.9791H69.2148Z" fill="#7E6459"/>
<path d="M83.4119 11.9512H84.443L88.0121 17.3281L91.5812 11.9512H92.6123V20.7282H91.5019V13.8489L88.0121 19.0677L84.5223 13.8489V20.7282H83.4119V11.9512Z" fill="#7E6459"/>
<path d="M104.827 20.728H103.796V13.9277H108.475C109.903 13.9277 110.696 14.6394 110.696 15.8255C110.696 16.7743 110.061 17.5651 109.03 17.7232L110.934 20.728H109.744L107.841 17.7232H104.827V20.728ZM108.475 16.7743C109.189 16.7743 109.586 16.458 109.586 15.8255C109.586 15.1929 109.189 14.8766 108.475 14.8766H104.827V16.6953H108.475V16.7743Z" fill="#7E6459"/>
<path d="M114.424 13.9277H113.313V20.728H114.424V13.9277Z" fill="#7E6459"/>
<path d="M117.358 18.9883C118.31 19.6208 119.5 20.0162 120.531 20.0162C121.8 20.0162 122.593 19.4627 122.593 18.672C122.593 17.8813 121.879 17.565 120.452 17.4859C118.31 17.4859 117.2 17.1696 117.2 15.6672C117.2 14.5602 118.231 13.6904 120.055 13.6904C121.245 13.6904 122.355 14.0067 123.386 14.6393L122.831 15.5091C121.958 14.9556 120.927 14.6393 120.055 14.6393C118.945 14.6393 118.31 15.0347 118.31 15.5882C118.31 16.2207 119.024 16.458 120.452 16.458C122.672 16.458 123.783 17.2487 123.783 18.672C123.783 19.8581 122.672 20.886 120.769 20.886C119.5 20.886 118.072 20.4906 116.962 19.779L117.358 18.9883Z" fill="#7E6459"/>
<path d="M131.555 11.9512H136.79C138.535 11.9512 139.407 12.7419 139.407 14.1652C139.407 14.8768 139.17 15.4304 138.614 15.8257C139.566 16.3792 140.042 17.1699 140.042 18.1979C140.042 19.7793 138.932 20.8863 137.028 20.8863H131.476V11.9512H131.555ZM136.869 15.4304C137.821 15.4304 138.297 14.9559 138.297 14.2443C138.297 13.3745 137.821 12.9791 136.869 12.9791H132.666V15.4304H136.869ZM137.266 19.7003C138.297 19.7003 138.852 19.0677 138.852 18.0397C138.852 17.0909 138.297 16.3792 137.266 16.3792H132.666V19.7003H137.266Z" fill="#7E6459"/>
<path d="M151.939 17.2488L148.766 13.9277H150.194L152.415 16.379L154.636 13.9277H156.063L152.97 17.2488V20.728H151.939V17.2488Z" fill="#7E6459"/>
<path d="M98.2437 15.5092L100.94 20.728H102.051L98.5609 13.9277H97.8471L94.3573 20.728H95.547L98.2437 15.5092Z" fill="#7E6459"/>
<path d="M145.039 15.5092L147.735 20.728H148.846L145.356 13.9277H144.721L141.232 20.728H142.342L145.039 15.5092Z" fill="#7E6459"/>
</svg>
