<svg width="24" height="24" viewBox="0 0 24 24" fill="none" xmlns="http://www.w3.org/2000/svg">
<path fill-rule="evenodd" clip-rule="evenodd" d="M13.6025 9.72525C15.0568 9.72525 16.2357 10.9042 16.2357 12.3584C16.2357 12.7266 16.5342 13.0251 16.9023 13.0251C17.2705 13.0251 17.569 12.7266 17.569 12.3584C17.569 10.1678 15.7931 8.39191 13.6025 8.39191C13.2343 8.39191 12.9358 8.69039 12.9358 9.05858C12.9358 9.42677 13.2343 9.72525 13.6025 9.72525Z" fill="#ADADAD"/>
<path fill-rule="evenodd" clip-rule="evenodd" d="M13.6025 6.89681C16.6189 6.89681 19.0641 9.34205 19.0641 12.3584C19.0641 12.7266 19.3626 13.0251 19.7308 13.0251C20.099 13.0251 20.3975 12.7266 20.3975 12.3584C20.3975 8.60567 17.3553 5.56348 13.6025 5.56348C13.2343 5.56348 12.9359 5.86195 12.9359 6.23014C12.9359 6.59833 13.2343 6.89681 13.6025 6.89681Z" fill="#ADADAD"/>
<path fill-rule="evenodd" clip-rule="evenodd" d="M3.85915 6.80466L2.97847 7.87123C2.2926 8.70188 2.18076 9.89556 2.67448 10.8561C5.60425 16.5559 10.2618 20.8143 15.9246 23.7353C16.934 24.2559 18.1287 23.9888 18.8503 23.1149C19.2105 22.6787 19.6309 22.2582 19.9209 21.7695C20.6277 20.5784 20.3207 18.9766 19.1875 18.1767L15.9448 15.8879C15.3316 15.455 14.5181 15.5291 13.9896 16.0581L13.4795 16.5686C11.9168 15.6641 10.6517 14.417 9.66288 12.7977L10.1314 12.0076C10.4783 11.4224 10.4388 10.6692 10.0326 10.1236L7.64973 6.9226C6.72631 5.68213 4.86182 5.59034 3.85915 6.80466ZM4.88729 7.6536C5.34667 7.09725 6.16225 7.15732 6.5802 7.71877L8.96307 10.9198C9.2603 11.3191 8.50603 12.1344 8.31495 12.4567C8.19276 12.6627 8.19054 12.9185 8.30914 13.1267C9.52427 15.2595 11.1941 16.8928 13.2891 17.985C13.5473 18.1197 13.8631 18.0711 14.0689 17.8651L14.9328 17.0005C15.0061 16.9271 15.0972 16.9216 15.1759 16.9772L18.4186 19.266C18.9603 19.6484 19.1409 20.4713 18.7743 21.0891C18.5212 21.5156 18.1369 21.8848 17.8222 22.2659C17.4862 22.6729 16.9687 22.7736 16.5359 22.5503C11.1186 19.756 6.66363 15.7003 3.86033 10.2466C3.60218 9.74433 3.67115 9.12645 4.00661 8.72018L4.88729 7.6536Z" fill="#ADADAD"/>
</svg>
