<svg width="157" height="48" viewBox="0 0 157 48" fill="none" xmlns="http://www.w3.org/2000/svg">
<path d="M41.8915 0H14.0171L0.126892 24.0468L13.454 47.0643L14.0171 48H41.8915L55.7817 23.9532L41.8915 0ZM43.487 41.4503H18.9914L20.5869 38.7368H45.0825L43.487 41.4503ZM21.6192 36.8655L23.2147 34.152H47.7104L46.1149 36.8655H21.6192ZM24.341 32.2807L25.9365 29.5673H50.4321L48.8366 32.2807H24.341ZM26.9689 27.6023L28.4705 24.9825H52.9662L51.4645 27.6023H26.9689ZM18.8036 10.1053L6.60275 31.2515L5.00725 28.538L17.2081 7.39181L18.8036 10.1053ZM19.9299 12.0702L21.5254 14.7836L9.32449 35.9298L7.72899 33.2164L19.9299 12.0702ZM22.5578 16.655L24.1533 19.3684L11.9524 40.5146L10.3569 37.8012L22.5578 16.655ZM16.2696 1.96491H19.2729L31.4738 23.1111H28.4705L16.2696 1.96491ZM44.6132 23.1111L32.4123 1.96491H35.6033L47.8042 23.1111H44.6132ZM42.3608 23.1111H39.1698L26.9689 1.96491H30.1599L42.3608 23.1111ZM37.0111 23.1111H33.8201L21.6192 1.96491H24.7164L37.0111 23.1111ZM52.9662 23.1111H49.9629L37.762 1.96491H40.7653L52.9662 23.1111ZM14.6741 2.90058L16.1758 5.4269L3.97487 26.5731L2.47322 24.0468L14.6741 2.90058ZM13.0786 42.386L25.2795 21.2398L26.875 23.9532L14.6741 45.0994L13.0786 42.386ZM40.7653 46.1287H16.2696L17.8651 43.4152H42.3608L40.7653 46.1287Z" fill="#7E6459"/>
<path d="M68.2313 27.7651H69.8176C70.1349 27.7651 70.4521 27.8442 70.69 27.8442C70.928 27.9233 71.1659 28.0024 71.3246 28.1605C71.4832 28.3186 71.6418 28.3977 71.8004 28.5559C71.8798 28.714 72.0384 28.8721 72.1177 29.0303C72.197 29.1884 72.197 29.3466 72.2763 29.5047C72.2763 29.6629 72.3556 29.821 72.3556 29.9792C72.3556 30.2954 72.2763 30.5327 72.197 30.8489C72.1177 31.0862 71.9591 31.4025 71.7211 31.5606C71.4832 31.7978 71.2452 31.956 70.928 32.1141C70.6107 32.2722 70.2142 32.2722 69.8176 32.2722H68.2313V27.7651ZM68.8658 31.7978H69.659C69.8969 31.7978 70.1349 31.7978 70.3728 31.7187C70.6107 31.6397 70.8487 31.5606 71.0073 31.4025C71.1659 31.2443 71.3246 31.0862 71.4039 30.8489C71.4832 30.6117 71.5625 30.3745 71.5625 30.0582C71.5625 29.9001 71.5625 29.7419 71.4832 29.5047C71.4039 29.2675 71.3246 29.1094 71.2452 28.9512C71.0866 28.7931 70.928 28.6349 70.69 28.4768C70.4521 28.3186 70.1349 28.3186 69.7383 28.3186H68.8658V31.7978Z" fill="#7E6459"/>
<path d="M75.9246 27.7651H76.4798L78.4627 32.3513H77.7489L77.273 31.2443H75.0522L74.5763 32.3513H73.8625L75.9246 27.7651ZM77.035 30.6908L76.1626 28.5559L75.2901 30.6908H77.035Z" fill="#7E6459"/>
<path d="M80.6836 28.3186H79.1766V27.7651H82.7458V28.3186H81.3181V32.3513H80.6836V28.3186Z" fill="#7E6459"/>
<path d="M85.9182 33.4583C86.0768 33.5374 86.2354 33.5374 86.394 33.5374C86.394 33.5374 86.4733 33.5374 86.5527 33.5374C86.632 33.5374 86.632 33.5374 86.7113 33.4583L86.7906 33.3793C86.7906 33.3793 86.8699 33.3002 86.8699 33.2211C86.8699 33.1421 86.8699 33.063 86.7906 33.063C86.7113 33.063 86.7113 32.9839 86.632 32.9839C86.5527 32.9839 86.4733 32.9839 86.394 32.9839C86.3147 32.9839 86.2354 32.9839 86.2354 32.9839L86.0768 32.9048L86.394 32.4304C86.1561 32.4304 85.9975 32.3513 85.7595 32.2723C85.4423 32.1141 85.2043 31.956 85.0457 31.7188C84.8078 31.4815 84.6491 31.2443 84.5698 30.928C84.4905 30.6117 84.4112 30.3745 84.4112 30.0582C84.4112 29.7419 84.4905 29.3466 84.5698 29.1094C84.7284 28.7931 84.8871 28.5559 85.0457 28.3186C85.2836 28.0814 85.5216 27.9233 85.8388 27.8442C86.1561 27.6861 86.4733 27.6861 86.7906 27.6861C87.1079 27.6861 87.4251 27.7651 87.6631 27.8442C87.9803 27.9233 88.2182 28.1605 88.3769 28.3977L87.8217 28.7931C87.6631 28.6349 87.5044 28.4768 87.3458 28.3977C87.1872 28.3186 86.9492 28.2396 86.7113 28.2396C86.4733 28.2396 86.2354 28.3186 85.9975 28.3977C85.7595 28.4768 85.6009 28.6349 85.4423 28.7931C85.2836 28.9512 85.2043 29.1884 85.125 29.4257C85.0457 29.6629 84.9664 29.9001 84.9664 30.1373C84.9664 30.3745 85.0457 30.6117 85.0457 30.849C85.125 31.0862 85.2043 31.2443 85.363 31.4025C85.5216 31.5606 85.6802 31.7188 85.9182 31.7978C86.1561 31.8769 86.394 31.956 86.632 31.956C86.8699 31.956 87.1079 31.8769 87.3458 31.7978C87.5044 31.7188 87.7424 31.5606 87.8217 31.3234L88.3769 31.7188C88.3769 31.7978 88.2976 31.7978 88.2182 31.956C88.1389 32.035 87.9803 32.1141 87.901 32.1932C87.7424 32.2723 87.5837 32.3513 87.3458 32.4304C87.1079 32.5095 86.8699 32.5095 86.632 32.5095H86.5527L86.3147 32.8258H86.4733C86.5527 32.8258 86.632 32.8258 86.7113 32.8258C86.7906 32.8258 86.8699 32.9048 86.8699 32.9048C86.9492 32.9048 86.9492 32.9839 87.0285 33.063C87.0285 33.1421 87.1079 33.2211 87.1079 33.3002C87.1079 33.4583 87.1079 33.5374 87.0285 33.6165C86.9492 33.6956 86.9492 33.7746 86.8699 33.7746C86.7906 33.8537 86.7113 33.8537 86.632 33.8537C86.5527 33.8537 86.4733 33.8537 86.3147 33.8537C86.1561 33.8537 86.0768 33.8537 85.9975 33.8537C85.9182 33.8537 85.7595 33.7746 85.6802 33.7746L85.9182 33.4583Z" fill="#7E6459"/>
<path d="M92.0253 27.7651H92.5805L94.5633 32.3513H93.8495L93.3736 31.2443H91.1528L90.677 32.3513H89.9631L92.0253 27.7651ZM93.1357 30.6908L92.2632 28.5559L91.3908 30.6908H93.1357Z" fill="#7E6459"/>
<path d="M99.4808 27.7651H101.146C101.464 27.7651 101.702 27.8442 101.86 27.9233C102.019 28.0024 102.177 28.0814 102.336 28.2396C102.415 28.3977 102.495 28.4768 102.574 28.6349C102.653 28.7931 102.653 28.9512 102.653 29.1094C102.653 29.2675 102.653 29.4257 102.574 29.5838C102.495 29.7419 102.495 29.9001 102.336 29.9792C102.257 30.1373 102.098 30.2164 101.86 30.2954C101.702 30.3745 101.464 30.4536 101.146 30.4536H100.115V32.5095H99.4808V27.7651ZM100.036 29.821H100.829C100.988 29.821 101.067 29.821 101.226 29.821C101.305 29.821 101.464 29.7419 101.543 29.7419C101.622 29.6629 101.702 29.5838 101.781 29.5047C101.86 29.4256 101.86 29.2675 101.86 29.1094C101.86 28.9512 101.86 28.7931 101.781 28.714C101.702 28.6349 101.622 28.5559 101.543 28.4768C101.464 28.3977 101.305 28.3977 101.226 28.3977C101.067 28.3977 100.988 28.3977 100.829 28.3977H100.036V29.821Z" fill="#7E6459"/>
<path d="M104.557 27.7651H107.571V28.3186H105.192V29.7419H107.412V30.2954H105.192V31.7978H107.65V32.3513H104.557V27.7651Z" fill="#7E6459"/>
<path d="M109.792 27.7651H110.664L113.202 31.5606V27.7651H113.837V32.3513H113.043L110.426 28.5559V32.3513H109.792V27.7651Z" fill="#7E6459"/>
<path d="M116.93 27.7651H116.295V32.3513H116.93V27.7651Z" fill="#7E6459"/>
<path d="M119.309 27.7651H120.182L122.72 31.5606V27.7651H123.354V32.3513H122.561L119.944 28.5559V32.3513H119.309V27.7651Z" fill="#7E6459"/>
<path d="M125.892 31.4025C125.972 31.5606 126.13 31.7188 126.368 31.7978C126.527 31.8769 126.765 31.956 126.923 31.956C127.003 31.956 127.161 31.956 127.241 31.8769C127.32 31.8769 127.479 31.7978 127.558 31.7188C127.637 31.6397 127.717 31.5606 127.796 31.4815C127.875 31.4025 127.875 31.2443 127.875 31.1652C127.875 31.0071 127.796 30.849 127.717 30.7699C127.637 30.6908 127.479 30.6117 127.32 30.5327C127.161 30.4536 127.003 30.3745 126.765 30.3745C126.606 30.2955 126.368 30.2164 126.21 30.1373C126.051 30.0582 125.892 29.9001 125.813 29.7419C125.734 29.5838 125.654 29.3466 125.654 29.0303C125.654 28.8721 125.654 28.714 125.734 28.5559C125.813 28.3977 125.892 28.2396 126.051 28.1605C126.21 28.0024 126.368 27.9233 126.527 27.8442C126.685 27.7651 127.003 27.6861 127.241 27.6861C127.479 27.6861 127.717 27.6861 127.954 27.7651C128.192 27.8442 128.351 28.0024 128.589 28.1605L128.113 28.6349C128.034 28.4768 127.954 28.3977 127.796 28.3186C127.637 28.2396 127.479 28.2396 127.32 28.2396C127.161 28.2396 127.003 28.2396 126.923 28.3186C126.844 28.3977 126.685 28.3977 126.685 28.4768C126.606 28.5559 126.606 28.6349 126.527 28.714C126.527 28.7931 126.448 28.8721 126.448 28.9512C126.448 29.1094 126.527 29.2675 126.606 29.4257C126.685 29.5047 126.844 29.5838 127.003 29.6629C127.161 29.7419 127.32 29.821 127.558 29.821C127.717 29.9001 127.954 29.9792 128.113 30.0582C128.272 30.1373 128.43 30.2955 128.51 30.4536C128.589 30.6117 128.668 30.849 128.668 31.0862C128.668 31.3234 128.589 31.4815 128.51 31.7188C128.43 31.8769 128.351 32.035 128.192 32.1932C128.034 32.3513 127.875 32.4304 127.717 32.5095C127.558 32.5885 127.32 32.5885 127.082 32.5885C126.765 32.5885 126.527 32.5095 126.21 32.4304C125.892 32.3513 125.734 32.1932 125.575 31.956L125.892 31.4025Z" fill="#7E6459"/>
<path d="M131.206 27.7652V30.6118C131.206 30.7699 131.206 30.928 131.286 31.0862C131.365 31.2443 131.365 31.4025 131.524 31.4816C131.603 31.6397 131.762 31.7188 131.92 31.7978C132.079 31.8769 132.237 31.956 132.475 31.956C132.713 31.956 132.872 31.8769 133.031 31.7978C133.189 31.7188 133.269 31.6397 133.427 31.4816C133.506 31.3234 133.586 31.2443 133.586 31.0862C133.586 30.928 133.665 30.7699 133.665 30.6118V27.7652H134.3V30.6908C134.3 30.928 134.22 31.2443 134.141 31.4025C134.062 31.6397 133.903 31.7978 133.744 31.956C133.586 32.1141 133.427 32.2723 133.189 32.3514C132.951 32.4304 132.713 32.5095 132.475 32.5095C132.237 32.5095 132 32.4304 131.762 32.3514C131.524 32.2723 131.365 32.1141 131.206 31.956C131.048 31.7978 130.889 31.6397 130.81 31.4025C130.731 31.1653 130.651 30.928 130.651 30.6908V27.7652H131.206Z" fill="#7E6459"/>
<path d="M136.521 27.7651H137.155V31.7978H139.217V32.3513H136.521V27.7651Z" fill="#7E6459"/>
<path d="M142.627 27.7651H143.183L145.166 32.3513H144.452L143.976 31.2443H141.755L141.279 32.3513H140.565L142.627 27.7651ZM143.738 30.6908L142.865 28.5559L141.993 30.6908H143.738Z" fill="#7E6459"/>
<path d="M76.6386 16.3788C76.6386 18.9091 74.973 20.7277 71.9591 20.7277H68.2313V11.9507H72.0384C74.8937 11.9507 76.6386 13.8484 76.6386 16.3788ZM69.3417 12.9787V19.7789H72.0384C74.3385 19.7789 75.5282 18.3556 75.5282 16.3788C75.5282 14.402 74.1799 12.9787 72.0384 12.9787H69.3417Z" fill="#7E6459"/>
<path d="M83.5388 11.9507H84.5699L88.139 17.3276L91.7081 11.9507H92.7392V20.7277H91.6288V13.8485L88.139 19.0672L84.6492 13.8485V20.7277H83.5388V11.9507Z" fill="#7E6459"/>
<path d="M104.954 20.7277H103.923V13.9275H108.602C110.03 13.9275 110.823 14.6391 110.823 15.8252C110.823 16.7741 110.188 17.5648 109.157 17.7229L111.061 20.7277H109.871L107.968 17.7229H104.954V20.7277ZM108.602 16.7741C109.316 16.7741 109.712 16.4578 109.712 15.8252C109.712 15.1926 109.316 14.8763 108.602 14.8763H104.954V16.695H108.602V16.7741Z" fill="#7E6459"/>
<path d="M114.551 13.9275H113.44V20.7277H114.551V13.9275Z" fill="#7E6459"/>
<path d="M117.485 18.9881C118.437 19.6207 119.627 20.0161 120.658 20.0161C121.927 20.0161 122.72 19.4626 122.72 18.6718C122.72 17.8811 122.006 17.5648 120.578 17.4857C118.437 17.4857 117.327 17.1695 117.327 15.6671C117.327 14.5601 118.358 13.6903 120.182 13.6903C121.372 13.6903 122.482 14.0066 123.513 14.6391L122.958 15.5089C122.085 14.9554 121.054 14.6391 120.182 14.6391C119.071 14.6391 118.437 15.0345 118.437 15.588C118.437 16.2206 119.151 16.4578 120.578 16.4578C122.799 16.4578 123.91 17.2485 123.91 18.6718C123.91 19.8579 122.799 20.8859 120.896 20.8859C119.627 20.8859 118.199 20.4905 117.089 19.7788L117.485 18.9881Z" fill="#7E6459"/>
<path d="M131.682 11.9507H136.917C138.662 11.9507 139.534 12.7414 139.534 14.1647C139.534 14.8764 139.296 15.4299 138.741 15.8253C139.693 16.3788 140.169 17.1695 140.169 18.1974C140.169 19.7789 139.059 20.8859 137.155 20.8859H131.603V11.9507H131.682ZM136.996 15.4299C137.948 15.4299 138.424 14.9555 138.424 14.2438C138.424 13.374 137.948 12.9787 136.996 12.9787H132.793V15.4299H136.996ZM137.393 19.6998C138.424 19.6998 138.979 19.0672 138.979 18.0393C138.979 17.0904 138.424 16.3788 137.393 16.3788H132.793V19.6998H137.393Z" fill="#7E6459"/>
<path d="M152.066 17.2485L148.893 13.9275H150.321L152.542 16.3787L154.762 13.9275H156.19L153.097 17.2485V20.7277H152.066V17.2485Z" fill="#7E6459"/>
<path d="M98.3706 15.5089L101.067 20.7277H102.178L98.6878 13.9275H97.974L94.4842 20.7277H95.6739L98.3706 15.5089Z" fill="#7E6459"/>
<path d="M145.166 15.5089L147.862 20.7277H148.973L145.483 13.9275H144.848L141.359 20.7277H142.469L145.166 15.5089Z" fill="#7E6459"/>
</svg>
