<svg width="84" height="39" viewBox="0 0 84 39" fill="none" xmlns="http://www.w3.org/2000/svg">
<path d="M6.67742 14.8752L5.79765 13.6077C6.73097 13.5707 7.61134 13.1649 8.2451 12.4796C8.87886 11.7942 9.21409 10.8855 9.17705 9.95333C9.14001 9.02113 8.73373 8.14181 8.04759 7.5088C7.36144 6.8758 6.45164 6.54097 5.51833 6.57797H0V7.89604H5.51833C6.10165 7.89604 6.66108 8.12748 7.07355 8.53946C7.48602 8.95144 7.71774 9.5102 7.71774 10.0928C7.71774 10.6754 7.48602 11.2342 7.07355 11.6462C6.66108 12.0582 6.10165 12.2896 5.51833 12.2896H0V18.4736H1.31965V13.6165H4.20308L7.55718 18.4823H9.17155L6.67742 14.8752Z" fill="#5A5C5D"/>
<path d="M15.8292 18.4815L20.9429 6.57715L26.0719 18.4749H24.706L20.9516 9.72734L17.1577 18.4749L15.8292 18.4815Z" fill="#5A5C5D"/>
<path d="M37.7947 12.3311H36.4663V18.4755H37.7947V12.3311Z" fill="#5A5C5D"/>
<path d="M38.1291 3.91517C38.1291 3.16926 37.9159 2.43885 37.5144 1.80993C37.1128 1.18101 36.5398 0.679758 35.8627 0.365179C35.1855 0.0505991 34.4325 -0.0642076 33.6922 0.0342698C32.952 0.132747 32.2553 0.44041 31.6842 0.921042C31.1131 1.40167 30.6914 2.03527 30.4687 2.74723C30.246 3.45919 30.2316 4.21989 30.4271 4.93976C30.6227 5.65964 31.0201 6.30873 31.5725 6.81062C32.125 7.31251 32.8095 7.64631 33.5455 7.77272V23.1502H34.8651V7.77272C35.7776 7.61814 36.6058 7.14603 37.2032 6.43999C37.8006 5.73396 38.1286 4.83956 38.1291 3.91517ZM31.544 3.91517C31.544 3.38857 31.7003 2.8738 31.9933 2.43595C32.2862 1.99811 32.7025 1.65685 33.1896 1.45533C33.6767 1.25381 34.2127 1.20109 34.7297 1.30382C35.2468 1.40655 35.7218 1.66013 36.0946 2.03249C36.4674 2.40485 36.7213 2.87926 36.8242 3.39573C36.927 3.91221 36.8742 4.44755 36.6725 4.93406C36.4707 5.42057 36.129 5.8364 35.6907 6.12896C35.2523 6.42152 34.7369 6.57767 34.2097 6.57767C33.8586 6.57911 33.5107 6.51133 33.1859 6.3782C32.8611 6.24507 32.5658 6.04922 32.3169 5.80186C32.068 5.55451 31.8705 5.26053 31.7356 4.93677C31.6007 4.61301 31.5311 4.26584 31.5308 3.91517H31.544Z" fill="#5A5C5D"/>
<path d="M84 6.57715H82.2888L78.5498 12.0691L74.7998 6.57715H73.0909L74.8746 9.21329L75.6136 10.3117C76.3687 11.4247 77.1019 12.5041 77.813 13.5497V18.4947H79.2184V13.5497L82.6231 8.58721L84 6.57715Z" fill="#5A5C5D"/>
<path d="M62.802 13.5698L61.6715 12.4714L64.7287 9.5782L67.8959 6.58398H65.8416L60.6994 11.4169V6.59497H59.2874V18.4774H60.6994V13.4423L65.8064 18.4642H67.8079L62.802 13.5588V13.5698Z" fill="#5A5C5D"/>
<path d="M51.4706 13.1836C51.1023 12.8173 50.6748 12.5158 50.206 12.2917C49.6309 12.0083 49.027 11.7873 48.4047 11.6326C47.3665 11.3734 46.6092 11.0168 46.1327 10.5628C45.9955 10.4567 45.8867 10.3183 45.8161 10.16C45.7455 10.0017 45.7152 9.82835 45.728 9.65551C45.7672 9.42497 45.8683 9.20936 46.0205 9.03163C46.1939 8.82251 46.3996 8.64231 46.6297 8.49781C46.8854 8.33582 47.1612 8.20805 47.4501 8.11776C47.7486 8.02154 48.0603 7.97262 48.3739 7.97278C49.0881 7.95151 49.7946 8.12545 50.4171 8.47584C50.4171 8.47584 50.7272 8.69552 50.8306 8.7746L50.8614 8.79877L51.2705 9.15904L51.4904 8.9833L52.3438 8.30449C52.2378 8.21374 52.1379 8.11614 52.0447 8.01232C51.8117 7.7864 51.5534 7.58811 51.2749 7.42138C50.885 7.18438 50.4715 6.98854 50.041 6.83704C49.5039 6.65028 48.9381 6.55956 48.3695 6.56903C47.9062 6.57062 47.4461 6.64475 47.0058 6.78871C46.562 6.92972 46.1411 7.13472 45.7566 7.39722C45.3825 7.6303 45.0618 7.93943 44.8152 8.30449L44.8306 8.28911C44.7012 8.4715 44.592 8.66744 44.5051 8.87346C44.4207 9.06934 44.3659 9.27662 44.3423 9.48856C44.3313 9.6348 44.3313 9.78167 44.3423 9.92792C44.3706 10.3184 44.4953 10.6957 44.7052 11.0263C44.8363 11.2352 44.9946 11.4258 45.1759 11.5931C45.5372 11.9155 45.9478 12.1781 46.3922 12.3707C46.9364 12.6142 47.5009 12.8097 48.0791 12.9551C48.8761 13.1278 49.6263 13.4702 50.2786 13.959C50.7859 14.3808 51.0132 14.8451 50.9604 15.3518C50.929 15.5712 50.8452 15.7799 50.7162 15.9603C50.5689 16.1786 50.3886 16.3727 50.1818 16.5358C49.9283 16.7257 49.6462 16.8741 49.346 16.9752C49.0346 17.0783 48.7085 17.1303 48.3805 17.129C47.8835 17.1331 47.3878 17.0763 46.9047 16.9598C46.4833 16.8607 46.0828 16.6882 45.7214 16.4502C45.5394 16.324 45.3733 16.1765 45.2265 16.0108C45.0799 15.8439 44.9802 15.7223 44.9274 15.6461L43.6935 16.2459C43.7038 16.2678 43.8013 16.3974 43.986 16.6347C44.2298 16.9289 44.5107 17.1903 44.8218 17.4124C45.2636 17.7305 45.7468 17.9869 46.258 18.1746C46.9392 18.4178 47.6595 18.5332 48.3827 18.5151C48.8591 18.5164 49.3327 18.4423 49.7859 18.2955C50.2277 18.1536 50.6421 17.9374 51.011 17.6562C51.3719 17.394 51.6776 17.0633 51.9105 16.683C52.1301 16.3313 52.2795 15.9404 52.3504 15.5319C52.434 14.6796 52.1407 13.8968 51.4706 13.1836Z" fill="#5A5C5D"/>
<path d="M33.8622 27.524H32.5997V26.6826H36.0374V27.524H34.7749V30.8192H33.8622V27.524Z" fill="#5A5C5D"/>
<path d="M38.5139 26.683H40.4098C40.6292 26.6691 40.8492 26.6991 41.0569 26.7711C41.2646 26.8432 41.4559 26.9558 41.6195 27.1026C41.7392 27.2286 41.8324 27.3774 41.8936 27.54C41.9548 27.7026 41.9827 27.8758 41.9758 28.0494V28.0604C41.9897 28.3412 41.9113 28.6188 41.7524 28.8508C41.5936 29.0829 41.363 29.2566 41.096 29.3455L42.1099 30.8261H41.0432L40.1635 29.5081H39.4267V30.8261H38.5139V26.683ZM40.3504 28.6952C40.7903 28.6952 41.0498 28.458 41.0498 28.1087V28.0977C41.0498 27.7067 40.7771 27.5068 40.3328 27.5068H39.4267V28.6974H40.3504V28.6952Z" fill="#5A5C5D"/>
<path d="M46.0008 26.6543H46.8431L48.6203 30.8282H47.6657L47.2874 29.8989H45.5279L45.1496 30.8282H44.2214L46.0008 26.6543ZM46.9597 29.0927L46.4077 27.7483L45.8556 29.0927H46.9553H46.9597Z" fill="#5A5C5D"/>
<path d="M50.0894 26.6826H51.1056L52.1899 29.6L53.2742 26.6826H54.2573L52.5792 30.8565H51.7654L50.0894 26.6826Z" fill="#5A5C5D"/>
<path d="M56.6679 26.6826H59.7977V27.502H57.5741V28.3434H59.5294V29.154H57.5741V30.0327H59.8263V30.8433H56.6679V26.6826Z" fill="#5A5C5D"/>
<path d="M62.415 26.6826H63.3277V29.9976H65.4018V30.8258H62.415V26.6826Z" fill="#5A5C5D"/>
<path d="M32.7119 35.8694V35.8496C32.7071 35.5655 32.7598 35.2834 32.867 35.0202C32.9742 34.757 33.1335 34.5182 33.3355 34.3181C33.5375 34.118 33.7779 33.9608 34.0423 33.8559C34.3067 33.751 34.5896 33.7006 34.874 33.7078C35.1765 33.6926 35.4788 33.7417 35.7609 33.8519C36.0429 33.9621 36.2984 34.1309 36.5103 34.347L35.9297 35.0061C35.6508 34.7181 35.2705 34.5502 34.8696 34.5382C34.705 34.5415 34.5428 34.5778 34.3926 34.6448C34.2423 34.7119 34.1071 34.8085 33.9949 34.9287C33.8827 35.049 33.7958 35.1905 33.7394 35.3449C33.683 35.4993 33.6582 35.6635 33.6665 35.8277V35.8496C33.6665 36.5592 34.1591 37.1523 34.8696 37.1523C35.0765 37.1517 35.2811 37.1082 35.4703 37.0246C35.6596 36.9411 35.8295 36.8192 35.9693 36.6668L36.5499 37.2534C36.3412 37.4974 36.0797 37.6908 35.7852 37.8191C35.4907 37.9473 35.1708 38.007 34.8498 37.9937C34.5683 37.9996 34.2886 37.9488 34.0272 37.8443C33.7659 37.7398 33.5283 37.5837 33.3288 37.3854C33.1292 37.1871 32.9717 36.9507 32.8657 36.6902C32.7597 36.4297 32.7074 36.1505 32.7119 35.8694Z" fill="#5A5C5D"/>
<path d="M38.7471 35.8695V35.8497C38.7463 35.5613 38.8025 35.2755 38.9124 35.0087C39.0222 34.7419 39.1836 34.4993 39.3874 34.2948C39.5911 34.0903 39.8331 33.9279 40.0997 33.8168C40.3663 33.7057 40.6521 33.6482 40.941 33.6475C41.2298 33.6467 41.5159 33.7028 41.7831 33.8126C42.0502 33.9223 42.2931 34.0835 42.4978 34.287C42.7025 34.4905 42.8652 34.7323 42.9764 34.9985C43.0876 35.2648 43.1452 35.5503 43.1459 35.8388V35.8497C43.1472 36.1382 43.0916 36.4242 42.9822 36.6912C42.8729 36.9582 42.712 37.2011 42.5087 37.406C42.3054 37.6109 42.0636 37.7738 41.7973 37.8854C41.5309 37.997 41.2452 38.0551 40.9564 38.0564C40.6675 38.0577 40.3813 38.0022 40.1139 37.893C39.8466 37.7838 39.6034 37.6231 39.3982 37.42C39.1931 37.2169 39.03 36.9755 38.9183 36.7094C38.8065 36.4434 38.7484 36.158 38.7471 35.8695ZM42.2023 35.8695V35.8497C42.2082 35.6812 42.1801 35.5131 42.1197 35.3556C42.0593 35.198 41.9678 35.0542 41.8507 34.9327C41.7335 34.8112 41.5931 34.7144 41.4378 34.6482C41.2824 34.5819 41.1154 34.5475 40.9465 34.5471C40.7789 34.5463 40.6128 34.5795 40.4584 34.6447C40.304 34.7098 40.1644 34.8055 40.0481 34.926C39.9317 35.0465 39.841 35.1894 39.7815 35.3459C39.7219 35.5024 39.6948 35.6693 39.7016 35.8366V35.8497C39.6957 36.0183 39.7238 36.1864 39.7842 36.3439C39.8446 36.5015 39.9361 36.6453 40.0533 36.7668C40.1704 36.8883 40.3108 36.9851 40.4662 37.0513C40.6215 37.1176 40.7886 37.152 40.9575 37.1524C41.1243 37.1528 41.2895 37.1196 41.4432 37.0548C41.5969 36.9899 41.736 36.8947 41.852 36.7749C41.968 36.6552 42.0586 36.5132 42.1184 36.3577C42.1783 36.2021 42.2061 36.0361 42.2001 35.8695H42.2023Z" fill="#5A5C5D"/>
<path d="M45.7456 33.7871H46.588L48.5323 36.3376V33.7871H49.434V37.9302H48.6576L46.6496 35.2941V37.9302H45.7478V33.7871H45.7456Z" fill="#5A5C5D"/>
<path d="M52.0206 35.8694V35.8496C52.0157 35.5655 52.0685 35.2834 52.1757 35.0202C52.2828 34.757 52.4422 34.5182 52.6442 34.3181C52.8461 34.118 53.0866 33.9608 53.3509 33.8559C53.6153 33.751 53.8982 33.7006 54.1826 33.7078C54.4851 33.6926 54.7874 33.7417 55.0695 33.8519C55.3516 33.9621 55.607 34.1309 55.819 34.347L55.2383 35.0061C54.9595 34.7181 54.5791 34.5502 54.1782 34.5382C54.0117 34.5413 53.8476 34.5783 53.6958 34.6467C53.544 34.7152 53.4077 34.8137 53.2952 34.9363C53.1827 35.059 53.0963 35.2032 53.0413 35.3602C52.9863 35.5172 52.9638 35.6837 52.9751 35.8496C52.9751 36.5592 53.4678 37.1523 54.1782 37.1523C54.3851 37.1517 54.5897 37.1082 54.779 37.0246C54.9682 36.9411 55.1381 36.8192 55.2779 36.6668L55.8586 37.2534C55.6499 37.4974 55.3884 37.6908 55.0938 37.8191C54.7993 37.9473 54.4794 38.007 54.1584 37.9937C53.877 37.9996 53.5972 37.9488 53.3359 37.8443C53.0745 37.7398 52.837 37.5837 52.6374 37.3854C52.4378 37.1871 52.2804 36.9507 52.1744 36.6902C52.0684 36.4297 52.0161 36.1505 52.0206 35.8694Z" fill="#5A5C5D"/>
<path d="M58.3966 33.7871H59.3094V37.9302H58.3966V33.7871Z" fill="#5A5C5D"/>
<path d="M62.1247 33.7871H65.2544V34.5977H63.033V35.4391H64.9883V36.2497H63.033V37.1284H65.2852V37.939H62.1247V33.7871Z" fill="#5A5C5D"/>
<path d="M67.8739 33.7875H69.7698C69.9893 33.7736 70.2093 33.8036 70.417 33.8756C70.6247 33.9477 70.8159 34.0603 70.9795 34.2071C71.0992 34.3331 71.1924 34.4818 71.2536 34.6445C71.3148 34.8071 71.3427 34.9803 71.3358 35.1539V35.1649C71.3498 35.4456 71.2713 35.7233 71.1125 35.9553C70.9536 36.1874 70.7231 36.3611 70.456 36.45L71.47 37.9306H70.4033L69.5235 36.6126H68.8065V37.9306H67.8937V33.7875H67.8739ZM69.7104 35.7997C70.1503 35.7997 70.4099 35.5625 70.4099 35.2132V35.1912C70.4099 34.8002 70.1371 34.6003 69.6928 34.6003H68.7867V35.791H69.7104V35.7997Z" fill="#5A5C5D"/>
<path d="M73.7596 35.8698V35.8501C73.7574 35.5656 73.8125 35.2836 73.9214 35.0207C74.0304 34.7579 74.191 34.5196 74.3939 34.3198C74.5967 34.1201 74.8376 33.9631 75.1022 33.858C75.3669 33.753 75.65 33.702 75.9348 33.7082C76.5317 33.677 77.117 33.8813 77.5645 34.2772L76.9839 34.9713C76.6921 34.6941 76.3023 34.5432 75.8996 34.5518C75.5707 34.566 75.2608 34.7096 75.0375 34.9512C74.8142 35.1927 74.6956 35.5127 74.7075 35.8413V35.8501C74.6969 36.0205 74.7216 36.1913 74.7802 36.3518C74.8387 36.5123 74.9297 36.659 75.0476 36.7827C75.1655 36.9064 75.3077 37.0045 75.4652 37.0708C75.6228 37.1371 75.7924 37.1703 75.9634 37.1681C76.269 37.1776 76.5699 37.0908 76.8233 36.9199V36.329H75.904V35.5425H77.7053V37.3417C77.2137 37.7683 76.5839 38.0024 75.9326 38.0007C74.6393 38.0007 73.7596 37.0956 73.7596 35.8698Z" fill="#5A5C5D"/>
<path d="M80.3578 33.7871H83.4876V34.5977H81.2662V35.4391H83.2171V36.2497H81.2618V37.1284H83.514V37.939H80.3578V33.7871Z" fill="#5A5C5D"/>
</svg>
