<svg width="56" height="56" viewBox="0 0 56 56" fill="none" xmlns="http://www.w3.org/2000/svg">
<circle opacity="0.9" cx="28" cy="28" r="28" fill="#FDFDFD"/>
<path fill-rule="evenodd" clip-rule="evenodd" d="M19 28C19 32.4183 22.5817 36 27 36C28.8487 36 30.551 35.3729 31.9056 34.3199L37.2929 39.7071L38.7071 38.2929L33.3199 32.9056C34.3729 31.551 35 29.8487 35 28C35 23.5817 31.4183 20 27 20C22.5817 20 19 23.5817 19 28ZM27 34C30.3137 34 33 31.3137 33 28C33 24.6863 30.3137 22 27 22C23.6863 22 21 24.6863 21 28C21 31.3137 23.6863 34 27 34ZM26 24V27H23V29H26V32H28V29H31V27H28V24H26Z" fill="black"/>
</svg>
