<svg width="36" height="36" viewBox="0 0 36 36" fill="none" xmlns="http://www.w3.org/2000/svg">
<g clip-path="url(#clip0)">
<path d="M35.4232 4.31148C34.1966 3.08537 32.5635 2.41016 30.8247 2.41016C29.086 2.41016 27.4528 3.08544 26.226 4.31197C25.7453 4.79298 25.1012 5.05791 24.4125 5.05791C23.7238 5.05791 23.0796 4.79291 22.5984 4.31162C21.372 3.08558 19.7392 2.41044 18.0004 2.41044C16.2615 2.41044 14.6282 3.08565 13.4014 4.31197C12.9206 4.79305 12.2764 5.05805 11.5876 5.05805C10.8991 5.05805 10.255 4.79305 9.77393 4.31169C8.54719 3.08572 6.91411 2.41051 5.17535 2.41051C3.43659 2.41051 1.80359 3.08572 0.576914 4.31176C0.205313 4.68322 0.000492188 5.17716 0 5.7031V32.9983C0 33.3259 0.2655 33.5914 0.593016 33.5914H35.4071C35.7346 33.5914 36.0001 33.3259 36.0001 32.9983V5.70549C36.0005 5.17927 35.7957 4.6842 35.4232 4.31148ZM33.2288 27.4675C32.9629 26.3989 31.9958 25.6045 30.8462 25.6045H28.419C30.3645 24.3768 32.9444 24.4498 34.814 25.8822V27.4675H33.2288ZM34.814 28.6535V28.9637C34.6181 28.8502 34.4168 28.7467 34.2105 28.6535H34.814ZM20.0811 25.6045H15.8817C14.732 25.6045 13.7648 26.3989 13.4989 27.4675H11.8179C12.6622 27.3556 13.4402 26.9752 14.0477 26.3673C16.2272 24.1885 19.7732 24.1884 21.9521 26.367C22.5601 26.9751 23.3381 27.3555 24.1824 27.4675H22.4639C22.1979 26.3989 21.2307 25.6045 20.0811 25.6045ZM21.3507 28.0605C21.3507 28.7603 20.7811 29.3296 20.0811 29.3296H15.8817C15.1817 29.3296 14.612 28.7603 14.612 28.0605C14.612 27.3603 15.1816 26.7905 15.8817 26.7905H20.0811C20.7811 26.7905 21.3507 27.3603 21.3507 28.0605ZM1.18596 27.4676V25.8824C3.05536 24.45 5.63527 24.377 7.58095 25.6046H5.11664C3.96689 25.6046 2.9996 26.399 2.73354 27.4676H1.18596ZM1.78959 28.6535C1.5833 28.7468 1.38185 28.8504 1.18596 28.9639V28.6535H1.78959ZM5.11664 26.7905H9.31591C10.016 26.7905 10.5857 27.3602 10.5857 28.0604C10.5857 28.7603 10.0161 29.3295 9.31591 29.3295H5.11664C4.41647 29.3295 3.8468 28.7603 3.8468 28.0604C3.8468 27.3602 4.41647 26.7905 5.11664 26.7905ZM11.6987 28.6535H13.4989C13.5717 28.9456 13.6969 29.2171 13.8641 29.4575C13.6342 29.6349 13.415 29.8268 13.209 30.0326C12.701 30.5409 12.0205 30.8208 11.2927 30.8208C10.7947 30.8208 10.3188 30.6895 9.90492 30.4435C10.7852 30.2261 11.4797 29.533 11.6987 28.6535ZM34.814 24.459C33.7132 23.8204 32.448 23.5017 31.1505 23.5525C29.4398 23.6186 27.8321 24.3204 26.6239 25.5286C26.5968 25.5556 26.5688 25.5814 26.5407 25.6072C25.9145 25.634 25.3485 25.8964 24.9289 26.3078C24.8553 26.3136 24.7814 26.3169 24.7075 26.3169C23.9797 26.3169 23.2991 26.0368 22.7908 25.5283C22.2019 24.9395 21.5303 24.4828 20.8133 24.1566C21.7735 23.8574 22.679 23.4043 23.4998 22.8099C23.8868 22.9349 24.2914 22.9989 24.7074 22.9989C25.7523 22.9989 26.7308 22.5955 27.4624 21.8633C29.4389 19.8872 32.6173 19.6953 34.814 21.3783V24.459H34.814ZM23.8051 20.9961C23.5481 21.2532 23.2767 21.4905 22.9931 21.7084L20.4166 19.1321C20.7226 18.944 21.0088 18.7196 21.269 18.4594C21.529 18.1995 21.7533 17.9134 21.9413 17.6077L24.5177 20.1839C24.2997 20.4676 24.0621 20.739 23.8051 20.9961ZM18.0003 15.7257H18.0006C19.1073 15.7258 20.194 16.0572 21.1057 16.665C20.9393 17.0157 20.7126 17.3387 20.4304 17.6208C19.7826 18.2686 18.9195 18.6255 18.0004 18.6254C17.081 18.6254 16.2179 18.2686 15.57 17.6208C15.2878 17.3387 15.061 17.0156 14.8946 16.665C15.8065 16.0571 16.8936 15.7257 18.0003 15.7257ZM14.5771 15.4667C14.5699 15.3754 14.5653 15.2836 14.5653 15.191C14.5652 14.2718 14.922 13.4088 15.5697 12.7609C16.2176 12.1131 17.0807 11.7563 17.9999 11.7563C18.9191 11.7563 19.7821 12.1131 20.4299 12.7609C21.0779 13.4088 21.4348 14.2719 21.4349 15.1911C21.4349 15.2837 21.4303 15.3754 21.4231 15.4668C20.3922 14.8653 19.2061 14.5399 18.0006 14.5398C18.0005 14.5398 18.0005 14.5398 18.0002 14.5398C16.7948 14.5398 15.6082 14.8652 14.5771 15.4667ZM22.4504 16.4395C22.562 16.0382 22.621 15.6193 22.6209 15.1909C22.6209 14.7627 22.5619 14.3437 22.4502 13.9424L25.1824 11.21C25.8501 12.4132 26.2057 13.7739 26.2057 15.1908C26.2057 16.6074 25.8502 17.9683 25.1825 19.1715L22.4504 16.4395ZM21.9411 12.7744C21.7531 12.4686 21.5286 12.1823 21.2685 11.9223C21.0084 11.6623 20.7222 11.4379 20.4164 11.2499L22.9928 8.67345C23.2765 8.89142 23.548 9.12887 23.8051 9.38593C24.0621 9.64292 24.2994 9.9144 24.5174 10.1979L21.9411 12.7744ZM19.248 10.7409C18.8468 10.6292 18.428 10.5703 17.9999 10.5703C17.5717 10.5703 17.153 10.6293 16.7517 10.7408L14.0195 8.00851C15.2226 7.34089 16.5833 6.98539 18 6.98539C19.4167 6.98539 20.7773 7.34075 21.9805 8.00851L19.248 10.7409ZM15.5835 11.2497C15.2776 11.4377 14.9913 11.6621 14.7312 11.9222C14.4712 12.1823 14.2468 12.4685 14.0589 12.7743L11.4829 10.198C11.6996 9.91559 11.9367 9.64405 12.1951 9.38572C12.4521 9.12866 12.7235 8.89128 13.0072 8.67324L15.5835 11.2497ZM13.5499 13.9426C13.4383 14.3439 13.3793 14.7627 13.3795 15.191C13.3795 15.6192 13.4385 16.038 13.55 16.4393L10.8188 19.1704C9.4533 16.7036 9.45323 13.6777 10.8188 11.2112L13.5499 13.9426ZM14.059 17.6074C14.247 17.9132 14.4714 18.1994 14.7315 18.4594C14.9915 18.7194 15.2777 18.9436 15.5835 19.1317L13.007 21.7082C12.7234 21.4903 12.452 21.2529 12.195 20.9959C11.9366 20.7375 11.6995 20.466 11.4829 20.1835L14.059 17.6074ZM16.7517 19.6407C17.1531 19.7523 17.5719 19.8112 18.0003 19.8112H18.0004C18.4284 19.8112 18.847 19.7523 19.248 19.6409L21.9806 22.3732C20.7776 23.0408 19.4169 23.3963 18.0004 23.3963C16.5835 23.3963 15.2227 23.0408 14.0195 22.3731L16.7517 19.6407ZM22.4639 28.6534H24.2639C24.4852 29.5419 25.1917 30.2398 26.0846 30.4498C25.6734 30.6916 25.2014 30.8208 24.7074 30.8208C23.9797 30.8208 23.299 30.5408 22.7907 30.0322C22.5776 29.8192 22.3504 29.6212 22.1119 29.4389C22.2726 29.2031 22.393 28.9379 22.4639 28.6534ZM25.377 28.0605C25.377 27.3603 25.9467 26.7905 26.647 26.7905H30.8463C31.5463 26.7905 32.1158 27.3603 32.1158 28.0605C32.1158 28.7603 31.5463 29.3296 30.8463 29.3296H26.647C25.9466 29.3295 25.377 28.7603 25.377 28.0605ZM31.1508 19.0486C29.4399 19.1147 27.8322 19.8165 26.6236 21.0249C26.1159 21.5331 25.4353 21.813 24.7074 21.813C24.6935 21.813 24.6797 21.8122 24.6658 21.812C25.8154 20.6548 26.6271 19.2497 27.0512 17.716C27.1958 17.607 27.3338 17.4882 27.4624 17.3596C29.4386 15.3834 32.6171 15.1913 34.814 16.8746V19.9553C33.7133 19.3166 32.4477 18.9979 31.1508 19.0486ZM31.1505 14.5448C29.7702 14.5982 28.4573 15.0659 27.3668 15.8789C27.3832 15.6511 27.3916 15.4216 27.3916 15.1909C27.3916 14.4865 27.3148 13.7942 27.1654 13.1234C27.2687 13.0394 27.3681 12.9502 27.4624 12.8559C29.4387 10.8796 32.6173 10.6876 34.8141 12.3706V15.4515H34.814C33.7132 14.8129 32.4475 14.4943 31.1505 14.5448ZM34.814 10.9476C33.713 10.3088 32.4469 9.99013 31.1505 10.041C29.5157 10.1042 27.976 10.7491 26.788 11.8606C26.4587 10.9883 25.999 10.1675 25.4181 9.42291C26.1906 9.28271 26.8996 8.91498 27.4623 8.35191C29.4386 6.37578 32.6171 6.18355 34.814 7.86683V10.9476H34.814ZM1.18603 5.70352C1.18617 5.49448 1.26759 5.29803 1.41532 5.15037C2.41784 4.14821 3.75321 3.59633 5.17528 3.59633C6.59742 3.59633 7.93273 4.14821 8.93517 5.15009C9.64013 5.8554 10.5821 6.24388 11.5876 6.24388C12.5932 6.24388 13.5352 5.85554 14.24 5.15059C15.2428 4.14828 16.5782 3.5964 18.0004 3.5964C19.4224 3.5964 20.7577 4.14821 21.7597 5.15016C22.4648 5.8554 23.4069 6.24388 24.4124 6.24388C25.4181 6.24388 26.3601 5.85554 27.0646 5.15052C28.0671 4.14814 29.4025 3.59619 30.8246 3.59619C32.2467 3.59619 33.582 4.14814 34.5845 5.15009C34.7326 5.29831 34.8142 5.49519 34.8139 5.705V6.44391C33.7129 5.80555 32.4469 5.48745 31.1503 5.53695C29.4395 5.60312 27.8319 6.30498 26.6235 7.51323C26.1157 8.02145 25.4352 8.30136 24.7073 8.30136C24.592 8.30136 24.4773 8.29355 24.3642 8.2797C23.4691 7.45409 22.4393 6.82086 21.3249 6.40095C19.2676 5.24319 16.7332 5.24291 14.6756 6.40067C13.5608 6.82065 12.5307 7.45395 11.6354 8.27984C11.5222 8.29377 11.4075 8.30136 11.2925 8.30136C10.5649 8.30136 9.88432 8.02137 9.37596 7.51295C8.16778 6.30498 6.56016 5.60326 4.84938 5.53709C3.55296 5.4878 2.28698 5.80576 1.18603 6.44405V5.70352ZM8.53755 8.35163C9.1009 8.91512 9.81014 9.28278 10.5829 9.42299C9.99576 10.1769 9.53944 11.0003 9.21431 11.8624C8.02596 10.7501 6.48541 10.1043 4.84966 10.041C3.55247 9.99174 2.28691 10.3096 1.1861 10.9479V7.86704H1.18603C3.38245 6.1839 6.561 6.37564 8.53755 8.35163ZM1.18603 12.3708C3.38252 10.6877 6.56107 10.8796 8.53763 12.8555C8.6329 12.9507 8.73323 13.0407 8.83744 13.1254C8.63508 14.0299 8.56723 14.9588 8.63423 15.8797C7.54355 15.0662 6.23025 14.5983 4.84959 14.5449C3.5524 14.4943 2.28684 14.8129 1.18596 15.4516L1.18603 12.3708ZM1.18596 16.8748C3.38238 15.1917 6.56086 15.3834 8.53755 17.3594C8.66763 17.4895 8.80734 17.6101 8.9538 17.7202C9.36998 19.2185 10.1633 20.6331 11.3343 21.812C11.3204 21.8122 11.3066 21.8131 11.2926 21.8131C10.5649 21.8131 9.88439 21.5331 9.3761 21.0247C8.16778 19.8167 6.56023 19.115 4.84959 19.0488C3.55282 18.9979 2.28698 19.3164 1.18596 19.9554V16.8748ZM1.18589 21.3786H1.18596C3.38245 19.6954 6.561 19.8873 8.53755 21.8632C9.26979 22.5957 10.2483 22.999 11.2928 22.999C11.7087 22.999 12.1134 22.9349 12.5005 22.8099C13.3214 23.4045 14.2271 23.8575 15.1874 24.1567C14.4701 24.483 13.7982 24.9397 13.2089 25.5287C12.7009 26.037 12.0204 26.317 11.2926 26.317C11.2049 26.317 11.1172 26.3124 11.0301 26.3042C10.6196 25.9035 10.0702 25.6451 9.4616 25.6093C9.43277 25.5827 9.40388 25.5561 9.37603 25.5284C8.16771 24.3207 6.56016 23.6189 4.84952 23.5527C3.55205 23.503 2.28663 23.821 1.18589 24.4595V21.3786ZM34.8141 32.4054H34.814H1.18596V30.3874C1.75212 29.9536 2.3992 29.6317 3.08707 29.4411C3.52969 30.0891 4.27423 30.5156 5.11664 30.5156H8.1469C8.28232 30.6278 8.41331 30.7467 8.53755 30.8708C9.26979 31.6034 10.2483 32.0068 11.2928 32.0068C12.3375 32.0068 13.3159 31.6034 14.0478 30.8713C14.2746 30.6445 14.5207 30.4382 14.7815 30.2543C15.1127 30.421 15.4864 30.5155 15.8818 30.5155H20.0812C20.4853 30.5155 20.8667 30.4168 21.2032 30.2431C21.4694 30.4296 21.7207 30.6395 21.9521 30.8708C22.6843 31.6034 23.6628 32.0068 24.7075 32.0068C25.7523 32.0068 26.7308 31.6034 27.4625 30.8711C27.587 30.7466 27.718 30.6276 27.8534 30.5155H30.8463C31.6924 30.5155 32.4399 30.0854 32.8816 29.4324C33.5815 29.6219 34.2392 29.9467 34.814 30.3871V32.4054H34.8141Z" fill="#7E6459"/>
</g>
<defs>
<clipPath id="clip0">
<rect width="36" height="36" fill="white"/>
</clipPath>
</defs>
</svg>
