<svg width="36" height="36" viewBox="0 0 36 36" fill="none" xmlns="http://www.w3.org/2000/svg">
<path d="M34.0775 7.31925C34.7353 6.60382 34.6328 6.03991 34.5132 5.76745C34.3935 5.49499 34.0479 5.03796 33.076 5.03796H31.5642L33.9044 2.49314C34.0056 2.38317 34.0589 2.23755 34.0527 2.08821C34.0464 1.93894 33.9812 1.79831 33.8712 1.69713L32.7456 0.662133C32.5164 0.451477 32.1601 0.466453 31.9496 0.695461L27.9561 5.03796H13.7485C13.1874 2.13293 10.6423 0 7.63154 0C4.19467 0 1.39862 2.79605 1.39862 6.23285C1.39862 9.66966 4.19474 12.4657 7.63154 12.4657C7.63161 12.4657 7.63161 12.4657 7.63175 12.4657C8.52423 12.4657 9.40911 12.2726 10.216 11.9052L18.0062 20.3758V32.7129H17.4891C16.583 32.7129 15.8457 33.4502 15.8457 34.3564C15.8457 35.2626 16.583 35.9999 17.4891 35.9999H22.5867C23.4928 35.9999 24.2301 35.2626 24.2301 34.3564C24.2301 33.4502 23.4928 32.7129 22.5867 32.7129H22.0699V20.3754L34.0775 7.31925ZM32.3976 1.8727L32.6939 2.14516L30.0335 5.03796H29.4867L32.3976 1.8727ZM28.4507 6.16465H28.9975L26.5173 8.86155H25.9704L28.4507 6.16465ZM27.1239 9.98824L20.7325 16.9381C20.5454 17.1416 20.2988 17.2537 20.038 17.2537C19.7772 17.2537 19.5307 17.1416 19.3436 16.9381L12.9518 9.98824H27.1239ZM7.63175 11.339H7.63154C4.81595 11.339 2.52531 9.04838 2.52531 6.23285C2.52531 3.41733 4.81595 1.12669 7.63154 1.12669C10.0233 1.12669 12.056 2.76926 12.5964 5.03803H11.6738C11.1532 3.26278 9.52337 2.01811 7.63161 2.01811C5.30764 2.01811 3.41687 3.90881 3.41687 6.23278C3.41687 8.55668 5.30764 10.4473 7.63161 10.4473C8.00898 10.4473 8.38023 10.3977 8.73981 10.2998L9.40384 11.0218C8.83937 11.2302 8.23785 11.339 7.63175 11.339ZM5.99861 7.31932L7.83264 9.31352C7.76577 9.31781 7.69897 9.32077 7.63147 9.32077C5.92864 9.32077 4.54335 7.93554 4.54335 6.23285C4.54335 4.53009 5.92864 3.1448 7.63147 3.1448C8.9016 3.1448 10.0111 3.9098 10.4812 5.03803H6.99993C6.02814 5.03803 5.68241 5.49506 5.56274 5.76752C5.44307 6.03998 5.34069 6.60382 5.99861 7.31932ZM22.5868 33.8396C22.8718 33.8396 23.1035 34.0715 23.1035 34.3565C23.1035 34.6415 22.8717 34.8734 22.5868 34.8734H17.4892C17.2042 34.8734 16.9724 34.6415 16.9724 34.3565C16.9724 34.0715 17.2042 33.8396 17.4892 33.8396H22.5868ZM21.092 19.7745C20.9964 19.8784 20.9433 20.0145 20.9433 20.1558V32.7129H19.1328V20.1561C19.1328 20.0149 19.0797 19.8787 18.9841 19.7748L6.82787 6.55671C6.67473 6.39014 6.62523 6.27926 6.60934 6.22687C6.65863 6.20325 6.77366 6.16458 6.99993 6.16458H26.9199L24.4397 8.86148H11.6684C11.4448 8.86148 11.2424 8.99367 11.1526 9.19842C11.0627 9.4031 11.1024 9.6416 11.2538 9.80613L18.5142 17.7007C18.9171 18.1389 19.4583 18.3802 20.038 18.3802C20.6176 18.3802 21.1588 18.1389 21.5619 17.7008L28.8218 9.80606C28.9732 9.64146 29.0129 9.40303 28.923 9.19835C28.8332 8.99367 28.6308 8.86148 28.4072 8.86148H28.0479L30.5281 6.16458H33.0761C33.3024 6.16458 33.4175 6.20318 33.4667 6.22687C33.4508 6.27919 33.4014 6.39 33.2481 6.55664L21.092 19.7745Z" fill="#7E6459"/>
</svg>
