<svg width="36" height="36" viewBox="0 0 36 36" fill="none" xmlns="http://www.w3.org/2000/svg">
<path d="M35.8878 15.3284C34.8459 13.93 33.4773 12.771 31.9297 11.9765C30.9942 11.4963 30.0149 11.1533 29.0015 10.9484L33.9263 8.55421C34.119 8.46055 34.2424 8.26614 34.2451 8.05196C34.2479 7.83765 34.1295 7.64028 33.9393 7.5417C32.3908 6.73957 30.6531 6.29555 28.9141 6.25772C28.0708 6.23958 27.2408 6.31362 26.4285 6.47668L26.6943 6.15914C26.8114 6.01922 26.8533 5.83233 26.8092 5.65718C26.9898 5.66977 27.166 5.59551 27.283 5.45545L29.6217 2.66003C29.7592 2.49564 29.7923 2.26789 29.7071 2.07123C29.6218 1.87456 29.433 1.74287 29.2191 1.73077C27.4779 1.63311 25.7109 1.93869 24.1086 2.61566C22.4284 3.32568 20.979 4.39971 19.8007 5.80814C19.0429 6.71398 18.4404 7.70701 17.9999 8.77443C17.5594 7.70701 16.957 6.71405 16.1991 5.80814C15.0208 4.39971 13.5715 3.32575 11.8913 2.61566C10.289 1.93855 8.52169 1.63283 6.78074 1.73077C6.56678 1.74287 6.37792 1.87449 6.29277 2.07123C6.20755 2.26789 6.24067 2.49564 6.37813 2.66003L8.71688 5.45545C8.83395 5.59551 9.01043 5.66991 9.19078 5.65704C9.14663 5.83219 9.1886 6.01922 9.30567 6.15907L9.57146 6.47668C8.75906 6.31355 7.92902 6.23937 7.08583 6.25765C5.34679 6.29548 3.60915 6.7395 2.06072 7.54163C1.87052 7.64021 1.75212 7.83758 1.75486 8.05189C1.7576 8.26614 1.88093 8.46048 2.07366 8.55414L6.9985 10.9483C5.98508 11.1533 5.00577 11.4963 4.07026 11.9765C2.52281 12.7709 1.15411 13.9299 0.112212 15.3284C-0.0157576 15.5001 -0.0359373 15.7296 0.0602505 15.9211C0.156368 16.1125 0.35233 16.2335 0.566643 16.2335H3.90727C3.80855 16.3268 3.71082 16.4214 3.61491 16.5187C2.39365 17.7572 1.45624 19.2863 0.903933 20.9403C0.836081 21.1435 0.888746 21.3677 1.03992 21.5195C1.14799 21.628 1.29304 21.6862 1.4414 21.6862C1.50061 21.6862 1.56044 21.677 1.61852 21.6578L7.16964 19.8296C7.34303 19.7725 7.47726 19.6358 7.53218 19.4637C7.67857 19.5694 7.86778 19.5997 8.0411 19.5425L10.5067 18.7309C10.68 18.6738 10.8142 18.5371 10.8692 18.3651C11.0156 18.4708 11.2046 18.501 11.3779 18.4438L15.1665 17.1963L14.4911 33.6974C14.4848 33.8515 14.5417 34.0015 14.6485 34.1128C14.7553 34.2242 14.903 34.2871 15.0572 34.2871H20.944C21.0982 34.2871 21.2458 34.2242 21.3527 34.1128C21.4595 34.0015 21.5163 33.8515 21.5101 33.6974L20.8346 17.1968L24.6219 18.4439C24.7952 18.501 24.9843 18.4709 25.1306 18.3652C25.1856 18.5372 25.3198 18.6739 25.4931 18.731L27.9587 19.5427C28.1323 19.5999 28.3213 19.5695 28.4676 19.4638C28.5226 19.6359 28.6568 19.7726 28.8302 19.8297L34.3815 21.658C34.4395 21.6771 34.4993 21.6864 34.5586 21.6864C34.7069 21.6864 34.8521 21.6281 34.9601 21.5197C35.1112 21.3678 35.1639 21.1436 35.096 20.9404C34.5437 19.2863 33.6063 17.7573 32.3851 16.5188C32.2892 16.4216 32.1914 16.3269 32.0927 16.2336H35.4333C35.6476 16.2336 35.8436 16.1127 35.9397 15.9212C36.0359 15.7296 36.0158 15.5002 35.8878 15.3284ZM28.8896 7.39046C30.0639 7.41605 31.2377 7.64731 32.3396 8.06581L28.4609 9.95139L27.9868 9.64694C27.8205 9.54013 27.6107 9.52783 27.433 9.61417C27.2553 9.70059 27.1354 9.87327 27.1167 10.07L27.0633 10.6308L26.8727 10.7235C26.8207 10.7227 26.769 10.7212 26.7169 10.7212C24.8807 10.7212 23.1268 11.1437 21.5042 11.9767C20.7093 12.3847 19.9623 12.8896 19.2819 13.4729C19.5954 12.773 19.9851 12.1078 20.4441 11.4965C21.4301 10.1831 22.6845 9.15032 24.1724 8.42694C25.6606 7.70335 27.2477 7.35587 28.8896 7.39046ZM20.6698 6.53525C21.7315 5.26631 23.0369 4.29874 24.5498 3.65945C25.6317 3.20221 26.7973 2.93284 27.974 2.86386L26.6182 4.48429L26.0612 4.40055C25.8658 4.37102 25.6692 4.44562 25.5424 4.59728C25.4155 4.74881 25.3769 4.95553 25.4402 5.1427L25.6211 5.67623L24.461 7.06273C24.1972 7.16806 23.9357 7.28225 23.6771 7.40797C22.0257 8.2108 20.6331 9.35753 19.5379 10.8162C19.1737 11.3014 18.8495 11.8174 18.5666 12.3557V10.6837H18.5665C18.9418 9.1513 19.6487 7.75573 20.6698 6.53525ZM19.685 16.8181L19.7275 17.8555H16.2737L16.3163 16.8176L18.0001 16.2632L19.685 16.8181ZM15.9587 25.5503L16.0698 22.836H19.9313L20.0425 25.5503H15.9587ZM20.0888 26.6834L20.1999 29.3978H15.8012L15.9124 26.6834H20.0888ZM16.1162 21.703L16.2273 18.9886H19.7738L19.8849 21.703H16.1162ZM9.38161 4.48415L8.02584 2.86372C9.20245 2.93277 10.3682 3.20221 11.4501 3.65931C12.9629 4.2986 14.2685 5.26624 15.3301 6.53511C16.3512 7.75566 17.0581 9.15116 17.4334 10.6835V12.3556C17.1504 11.8172 16.8261 11.3011 16.462 10.816C15.3668 9.35718 13.9742 8.21052 12.3228 7.40769C12.0643 7.28204 11.8028 7.16778 11.5389 7.06252L10.3789 5.67595L10.5598 5.14242C10.6231 4.95525 10.5845 4.74853 10.4576 4.597C10.3308 4.44541 10.134 4.37074 9.93877 4.40027L9.38161 4.48415ZM3.66026 8.06567C4.76221 7.64717 5.93594 7.41591 7.11023 7.39032C8.75386 7.35551 10.3392 7.70328 11.8272 8.42673C13.3152 9.15011 14.5696 10.1829 15.5556 11.4963C16.0145 12.1076 16.4042 12.7727 16.7177 13.4727C16.0373 12.8893 15.2903 12.3846 14.4955 11.9765C12.8729 11.1435 11.119 10.721 9.28275 10.721C9.23079 10.721 9.17897 10.7227 9.12701 10.7233L8.93639 10.6305L8.88295 10.0698C8.86425 9.87306 8.74444 9.7003 8.56669 9.61396C8.38908 9.52755 8.17919 9.53992 8.0129 9.64673L7.53879 9.95111L3.66026 8.06567ZM3.89279 15.1003H1.7801C2.58799 14.2422 3.54263 13.521 4.58755 12.9846C6.04865 12.2345 7.62843 11.8542 9.28289 11.8542C10.9374 11.8542 12.5171 12.2344 13.9781 12.9846C14.3345 13.1676 14.6802 13.3723 15.0132 13.5963C13.9619 13.2823 12.8658 13.1192 11.7497 13.1192C10.5379 13.1192 9.33457 13.3131 8.17329 13.6955C7.18061 14.0224 6.25635 14.4714 5.40782 15.0366L5.1535 14.6193C5.0507 14.4506 4.86732 14.3475 4.66974 14.3475C4.47217 14.3475 4.28879 14.4504 4.18599 14.6192L3.89279 15.1003ZM11.3258 17.268L10.897 16.9029C10.7467 16.7749 10.5403 16.7343 10.3525 16.7961C10.1648 16.8579 10.0228 17.0132 9.97793 17.2056L9.85004 17.7541L7.98893 18.3668L7.56002 18.0016C7.40955 17.8735 7.20325 17.833 7.01552 17.8948C6.82778 17.9566 6.68582 18.1118 6.64096 18.3043L6.51299 18.8529L2.41657 20.2019C2.91558 19.1341 3.59677 18.1506 4.42147 17.3142C5.57467 16.1448 6.95617 15.2894 8.5278 14.7719C9.57462 14.4272 10.6586 14.2524 11.7498 14.2524C13.4819 14.2524 15.1624 14.6834 16.6717 15.5076L11.3258 17.268ZM15.6475 33.1539L15.7548 30.531H20.2465L20.3538 33.1539H15.6475ZM33.5833 20.2019L29.4868 18.8528L29.3588 18.3041C29.3139 18.1118 29.1719 17.9566 28.9842 17.8948C28.7966 17.8329 28.5902 17.8735 28.4397 18.0015L28.0108 18.3668L26.1498 17.7541L26.0219 17.2056C25.977 17.0131 25.8351 16.8579 25.6473 16.7961C25.4597 16.7343 25.2532 16.7748 25.1028 16.9029L24.6741 17.2679L19.3281 15.5075C20.8374 14.6834 22.5179 14.2523 24.25 14.2523C25.3412 14.2523 26.4252 14.4271 27.472 14.7719C29.0436 15.2895 30.4251 16.1448 31.5784 17.3142C32.4031 18.1506 33.0842 19.1341 33.5833 20.2019ZM32.1071 15.1003V15.1003L31.8139 14.6192C31.7111 14.4506 31.5277 14.3475 31.3302 14.3475C31.1326 14.3475 30.9492 14.4504 30.8464 14.6193L30.5921 15.0366C29.7436 14.4714 28.8193 14.0224 27.8267 13.6955C26.6654 13.313 25.4621 13.1192 24.2502 13.1192C23.1342 13.1192 22.038 13.2823 20.9867 13.5963C21.3198 13.3722 21.6655 13.1676 22.0219 12.9846C23.4829 12.2345 25.0627 11.8542 26.7171 11.8542C28.3716 11.8542 29.9513 12.2344 31.4124 12.9846C32.4573 13.521 33.4119 14.2422 34.2199 15.1003H32.1071V15.1003Z" fill="#7E6459"/>
</svg>
