<svg width="36" height="36" viewBox="0 0 36 36" fill="none" xmlns="http://www.w3.org/2000/svg">
<g clip-path="url(#clip0)">
<path d="M33.0698 2.93012C30.8787 0.739042 27.8062 -0.278308 24.4178 0.0655197C21.1566 0.396339 17.9761 1.96304 15.462 4.47692C15.3353 4.60362 15.211 4.73405 15.0883 4.86617C13.606 2.69387 11.1114 1.26498 8.28898 1.26498C3.7532 1.26498 0.0630702 4.95518 0.0630702 9.4911C0.0630702 14.027 3.75327 17.7172 8.28912 17.7172C9.40238 17.7172 10.4645 17.4944 11.4338 17.0919C11.6804 18.4146 12.1389 19.6283 12.7832 20.6565L8.42209 25.0176C8.35156 25.0045 8.27928 24.9973 8.20595 24.9973C7.89277 24.9973 7.59894 25.1188 7.37837 25.3394L0.34214 32.3757C0.121429 32.5962 0 32.8901 0 33.2033C0 33.5164 0.121429 33.8103 0.34207 34.031L1.9691 35.6578C2.18967 35.8784 2.48357 36 2.79674 36C3.10992 36 3.40375 35.8785 3.62425 35.6579L10.6606 28.6216C10.8813 28.401 11.0028 28.1071 11.0028 27.7939C11.0028 27.7206 10.9956 27.6485 10.9825 27.578L15.3436 23.2169C17.2204 24.3947 19.6712 24.934 22.3074 24.7397C25.798 24.4823 29.0707 22.99 31.5229 20.5379C34.0369 18.0241 35.6035 14.8436 35.9345 11.5822C36.2783 8.19391 35.261 5.12133 33.0698 2.93012ZM21.1477 6.28395L22.6816 7.81788L21.1476 9.35181L19.6137 7.81788L21.1477 6.28395ZM20.9991 4.51369C21.1872 4.41779 21.3766 4.3275 21.567 4.2432L21.1479 4.66233L20.9991 4.51369ZM30.5266 14.0413L28.9927 12.5074L30.5266 10.9735L32.0605 12.5074L30.5266 14.0413ZM31.7571 14.4325C31.6726 14.623 31.5823 14.8126 31.4863 15.001L31.3374 14.8521L31.7571 14.4325ZM25.8371 18.7309L24.3033 17.1969L25.8372 15.663L27.3711 17.1968L25.8371 18.7309ZM25.9112 20.4264C25.824 20.466 25.7364 20.5043 25.6482 20.5415L25.8372 20.3525L25.9112 20.4264ZM21.9584 14.8521L23.4924 13.3181L25.0264 14.8522L23.4924 16.3861L21.9584 14.8521ZM22.6817 17.1969L21.1478 18.7309L19.6138 17.1968L21.1478 15.6629L22.6817 17.1969ZM24.3032 12.5074L25.8371 10.9734L27.3711 12.5073L25.8371 14.0414L24.3032 12.5074ZM26.648 10.1626L28.1818 8.62872L29.7158 10.1627L28.1819 11.6965L26.648 10.1626ZM25.8372 9.35181L24.3033 7.81788L25.8372 6.28395L27.3711 7.81788L25.8372 9.35181ZM25.0264 10.1627L23.4925 11.6966L21.9586 10.1627L23.4925 8.62872L25.0264 10.1627ZM22.6817 12.5074L21.1478 14.0415L19.6138 12.5074L21.1478 10.9734L22.6817 12.5074ZM20.3369 14.8521L18.8029 16.3863L17.2688 14.8522L18.8029 13.3181L20.3369 14.8521ZM17.9922 17.1969L15.8907 19.2983C15.3858 18.67 15.0585 17.9701 14.8524 17.2686L16.4582 15.6629L17.9922 17.1969ZM18.8029 18.0077L20.3368 19.5418L18.7722 21.1064C17.977 20.8802 17.2742 20.5418 16.7064 20.1041L18.8029 18.0077ZM21.1476 20.3525L22.1911 21.396C22.1682 21.398 22.1452 21.4005 22.1221 21.4023C21.433 21.457 20.763 21.4452 20.1283 21.3719L21.1476 20.3525ZM21.9585 19.5418L23.4924 18.0077L25.0263 19.5416L23.4923 21.0756L21.9585 19.5418ZM28.1819 18.0075L28.7477 18.5734C28.2014 19.0651 27.6081 19.4994 26.9779 19.8715L26.648 19.5416L28.1819 18.0075ZM28.1819 16.3861L26.648 14.8522L28.182 13.3181L29.7158 14.8521L28.1819 16.3861ZM30.5266 15.6629L30.8953 16.0316C30.5111 16.632 30.0657 17.2132 29.5604 17.7647L28.9925 17.1968L30.5266 15.6629ZM31.3374 10.1627L32.5539 8.94611C32.6894 9.74113 32.7047 10.5769 32.6015 11.4267L31.3374 10.1627ZM30.5266 9.35181L28.9927 7.81788L31.0978 5.71273C31.5845 6.29611 31.9563 6.95381 32.2156 7.66291L30.5266 9.35181ZM28.1819 7.00711L26.648 5.47317L28.3369 3.78427C29.046 4.04351 29.7038 4.41532 30.2872 4.90196L28.1819 7.00711ZM25.8372 4.66233L24.5733 3.39847C25.4231 3.29539 26.2586 3.31051 27.0535 3.446L25.8372 4.66233ZM25.0264 5.4731L23.4925 7.00704L21.9586 5.4731L23.4924 3.93917L25.0264 5.4731ZM18.8029 7.00711L18.2352 6.43941C18.7866 5.93414 19.3678 5.48871 19.9682 5.10439L20.3369 5.47303L18.8029 7.00711ZM18.8029 8.62865L20.3369 10.1626L18.8028 11.6967L17.2689 10.1628L18.8029 8.62865ZM16.5127 9.29732C16.5068 9.04399 16.489 8.79353 16.4606 8.54625C16.7598 8.07811 17.0833 7.64505 17.4283 7.2539L17.9922 7.81781L16.5127 9.29732ZM17.9922 12.5074L16.4582 14.0415L15.6258 13.2091C15.9649 12.5426 16.2155 11.824 16.3628 11.0689L16.4583 10.9734L17.9922 12.5074ZM15.6475 14.8521L14.5881 15.9115C14.5481 15.5342 14.5346 15.1711 14.5381 14.8344C14.7067 14.6376 14.8662 14.4327 15.0159 14.2205L15.6475 14.8521ZM14.3369 5.81426C14.9912 6.88666 15.3687 8.14561 15.3687 9.49103C15.3687 10.8365 14.9913 12.0955 14.337 13.1677C12.8822 12.5363 11.9312 11.1084 11.9312 9.49103C11.9312 7.87357 12.8821 6.44573 14.3369 5.81426ZM2.24128 13.1677C1.58695 12.0955 1.20958 10.8365 1.20958 9.49103C1.20958 8.14546 1.58702 6.88652 2.24128 5.81426C3.69604 6.44573 4.64694 7.87364 4.64694 9.49103C4.64694 11.1084 3.69597 12.5363 2.24128 13.1677ZM8.28905 16.5706C6.14987 16.5706 4.22929 15.6168 2.93013 14.1124C4.6705 13.2537 5.79346 11.4841 5.79346 9.49117C5.79346 7.49817 4.6705 5.72855 2.9302 4.86989C4.22936 3.36535 6.14987 2.41163 8.28898 2.41163C10.4282 2.41163 12.3486 3.36549 13.6479 4.86989C11.9077 5.72855 10.7847 7.49817 10.7847 9.49117C10.7847 11.484 11.9076 13.2537 13.648 14.1124C12.3488 15.6168 10.4282 16.5706 8.28905 16.5706ZM2.81334 34.8472C2.81165 34.8489 2.80715 34.8534 2.79667 34.8534C2.78613 34.8534 2.78156 34.8488 2.7798 34.8471L1.15284 33.2203C1.15122 33.2186 1.14658 33.214 1.14658 33.2033C1.14658 33.1927 1.15115 33.1881 1.15277 33.1865L5.12169 29.2175L6.7824 30.8782L2.81334 34.8472ZM7.5931 30.0675L5.93239 28.4067L6.4821 27.857L8.14281 29.5178L7.5931 30.0675ZM9.84999 27.8106L8.95358 28.7071L7.29287 27.0463L8.18928 26.1499C8.19083 26.1483 8.19547 26.1437 8.20602 26.1437C8.21656 26.1437 8.22113 26.1483 8.22282 26.15L9.85013 27.7772C9.85168 27.7787 9.85625 27.7833 9.85625 27.7938C9.85625 27.8044 9.85154 27.8091 9.84999 27.8106ZM34.7937 11.4663C34.4893 14.4658 33.0399 17.3995 30.7122 19.727C28.4543 21.9848 25.4395 23.3589 22.2231 23.5962C19.6586 23.7853 17.3074 23.2223 15.6026 22.0117C15.3746 21.8498 15.063 21.8761 14.8653 22.0738L10.3167 26.6223L9.3777 25.6835L13.9262 21.1349C14.1239 20.9372 14.1502 20.6256 13.9883 20.3975C13.2409 19.345 12.7317 18.0215 12.5046 16.5522C12.8296 16.3574 13.1401 16.1408 13.4342 15.9044C13.6072 17.7861 14.2974 19.3708 15.4632 20.5366C16.7707 21.8441 18.899 22.5827 21.2794 22.5826C21.5867 22.5826 21.8985 22.5703 22.2129 22.5454C25.1597 22.3112 27.9163 21.0485 29.9749 18.9899C34.4023 14.5627 35.0962 8.05272 31.5217 4.47811C27.9472 0.903924 21.4373 1.5977 17.01 6.02506C16.7047 6.33042 16.4125 6.66265 16.1354 7.01892C16.0143 6.63558 15.8659 6.26426 15.6925 5.90735C15.8795 5.69473 16.0735 5.48703 16.2728 5.28783C18.6007 2.96007 21.5344 1.51058 24.5336 1.20641C27.5729 0.897948 30.3162 1.79809 32.259 3.74103C34.202 5.68376 35.1023 8.42742 34.7937 11.4663Z" fill="#7E6459"/>
</g>
<defs>
<clipPath id="clip0">
<rect width="36" height="36" fill="white"/>
</clipPath>
</defs>
</svg>
